<svg width="70" height="70" viewBox="0 0 70 70" fill="none" xmlns="http://www.w3.org/2000/svg">
<circle cx="35" cy="35" r="35" fill="#832D2D"/>
<path d="M23.5672 32.2603C23.585 31.8164 23.4553 31.4737 23.1784 31.2322C22.9049 30.9908 22.4912 30.87 21.9372 30.87C21.5608 30.87 21.2341 30.9233 20.9571 31.0298C20.6801 31.1328 20.4582 31.2766 20.2913 31.4613C20.1279 31.6424 20.0267 31.8519 19.9877 32.0898C19.9486 32.2852 19.961 32.4556 20.0249 32.6012C20.0924 32.7468 20.1972 32.8729 20.3392 32.9794C20.4848 33.0824 20.657 33.1729 20.8559 33.2511C21.0548 33.3256 21.2661 33.3896 21.4898 33.4428L22.4273 33.6772C22.8854 33.7837 23.2973 33.9258 23.6631 34.1033C24.0324 34.2809 24.3414 34.4993 24.5899 34.7585C24.8421 35.0178 25.0196 35.3232 25.1226 35.6747C25.2256 36.0263 25.2398 36.4293 25.1652 36.8839C25.0516 37.5515 24.787 38.1303 24.3715 38.6204C23.9561 39.1069 23.411 39.4851 22.7362 39.755C22.0615 40.0213 21.2803 40.1545 20.3925 40.1545C19.5118 40.1545 18.7678 40.0195 18.1606 39.7496C17.5534 39.4798 17.1112 39.0803 16.8343 38.5511C16.5608 38.0185 16.4791 37.3597 16.5892 36.5749H18.8211C18.782 36.9407 18.8353 37.2461 18.9809 37.4911C19.1301 37.7326 19.352 37.9155 19.6468 38.0398C19.9415 38.1605 20.2877 38.2209 20.6855 38.2209C21.0796 38.2209 21.4294 38.1641 21.7348 38.0504C22.0438 37.9368 22.2941 37.7788 22.4859 37.5763C22.6776 37.3739 22.7948 37.1413 22.8374 36.8786C22.8801 36.6335 22.8428 36.4276 22.7256 36.2607C22.6084 36.0937 22.4202 35.9517 22.161 35.8345C21.9053 35.7138 21.5874 35.6072 21.2075 35.5149L20.0676 35.2166C19.1869 34.9929 18.521 34.6431 18.07 34.1673C17.6191 33.6914 17.4575 33.0504 17.5853 32.2443C17.699 31.5838 17.9742 31.0067 18.411 30.5131C18.8513 30.016 19.4053 29.6307 20.0729 29.3572C20.7441 29.0803 21.4774 28.9418 22.2728 28.9418C23.0825 28.9418 23.7661 29.082 24.3236 29.3626C24.8811 29.6396 25.2877 30.0266 25.5434 30.5238C25.7991 31.021 25.8772 31.5998 25.7778 32.2603H23.5672ZM29.2255 35.2699L28.4371 40H26.1733L27.9844 29.0909H30.1843L29.5025 33.2617H29.593C29.8558 32.7788 30.2163 32.4006 30.6744 32.1271C31.1325 31.8501 31.674 31.7116 32.299 31.7116C32.8672 31.7116 33.3413 31.8359 33.7212 32.0845C34.1048 32.3295 34.3764 32.6829 34.5362 33.1445C34.696 33.6026 34.7227 34.1513 34.6161 34.7905L33.7425 40H31.4787L32.2777 35.1953C32.3594 34.6911 32.2937 34.2987 32.0806 34.0181C31.8711 33.7376 31.5373 33.5973 31.0792 33.5973C30.7702 33.5973 30.4862 33.663 30.2269 33.7944C29.9677 33.9258 29.7493 34.1175 29.5717 34.3697C29.3977 34.6183 29.2823 34.9183 29.2255 35.2699ZM39.2251 40.1598C38.3905 40.1598 37.6998 39.9822 37.153 39.6271C36.6061 39.2685 36.2208 38.7713 35.9971 38.1357C35.7769 37.4964 35.7361 36.7525 35.8746 35.9038C36.0095 35.0657 36.29 34.3324 36.7162 33.7038C37.1423 33.0753 37.6839 32.587 38.3408 32.239C38.9978 31.8874 39.7382 31.7116 40.5621 31.7116C41.393 31.7116 42.0819 31.891 42.6288 32.2496C43.1757 32.6048 43.561 33.1019 43.7847 33.7411C44.0084 34.3803 44.051 35.1243 43.9126 35.973C43.7741 36.8075 43.49 37.5391 43.0603 38.1676C42.6306 38.7962 42.089 39.2862 41.4356 39.6378C40.7822 39.9858 40.0454 40.1598 39.2251 40.1598ZM39.4488 38.402C39.8323 38.402 40.1714 38.2937 40.4662 38.0771C40.7645 37.8569 41.0113 37.5586 41.2066 37.1822C41.4055 36.8022 41.5439 36.3725 41.6221 35.8931C41.7002 35.4208 41.7055 35.0018 41.6381 34.636C41.5706 34.2667 41.4285 33.9755 41.2119 33.7624C40.9988 33.5494 40.7059 33.4428 40.333 33.4428C39.9495 33.4428 39.6086 33.5529 39.3103 33.7731C39.012 33.9897 38.7652 34.288 38.5699 34.668C38.3746 35.0479 38.2378 35.4794 38.1597 35.9624C38.0851 36.4311 38.0798 36.8501 38.1437 37.2195C38.2077 37.5852 38.3479 37.8746 38.5645 38.0877C38.7812 38.2972 39.0759 38.402 39.4488 38.402ZM44.2215 43.0682L46.1072 31.8182H48.3444L48.1153 33.1925H48.2165C48.3515 32.9723 48.5308 32.7486 48.7545 32.5213C48.9818 32.2905 49.2641 32.0987 49.6015 31.946C49.9388 31.7898 50.3348 31.7116 50.7893 31.7116C51.3895 31.7116 51.9133 31.8679 52.3607 32.1804C52.8082 32.4893 53.1313 32.9563 53.3302 33.5813C53.5326 34.2028 53.5557 34.9822 53.3994 35.9197C53.2503 36.8324 52.9751 37.603 52.5738 38.2315C52.176 38.8565 51.6984 39.3306 51.1409 39.6538C50.5869 39.9734 49.9992 40.1332 49.3778 40.1332C48.9374 40.1332 48.5752 40.0604 48.2911 39.9148C48.0106 39.7692 47.7922 39.5863 47.6359 39.3661C47.4797 39.1424 47.3696 38.9169 47.3057 38.6896H47.2204L46.496 43.0682H44.2215ZM47.6466 35.9091C47.5684 36.3956 47.5649 36.82 47.6359 37.1822C47.7105 37.5444 47.8596 37.8267 48.0834 38.0291C48.3071 38.228 48.6018 38.3274 48.9676 38.3274C49.3369 38.3274 49.6654 38.2262 49.953 38.0238C50.2407 37.8178 50.4804 37.5337 50.6721 37.1715C50.8639 36.8058 51.0006 36.3849 51.0823 35.9091C51.1569 35.4368 51.1586 35.0213 51.0876 34.6626C51.0166 34.304 50.871 34.0234 50.6508 33.821C50.4307 33.6186 50.1324 33.5174 49.7559 33.5174C49.3902 33.5174 49.0617 33.6151 48.7705 33.8104C48.4829 34.0057 48.2432 34.2827 48.0514 34.6413C47.8596 35 47.7247 35.4226 47.6466 35.9091Z" fill="white"/>
</svg>
